<?xml version="1.0" encoding="iso-8859-1"?>
<!-- Generator: Adobe Illustrator 19.0.0, SVG Export Plug-In . SVG Version: 6.00 Build 0)  -->
<svg version="1.1" id="Layer_1" xmlns="http://www.w3.org/2000/svg" xmlns:xlink="http://www.w3.org/1999/xlink" x="0px" y="0px"
	 viewBox="0 0 512.006 512.006" style="enable-background:new 0 0 512.006 512.006;" xml:space="preserve">
<g>
	<g>
		<path d="M504.679,392.62l-57.719-8.243l-81.765-57.231c0.829-3.461,1.412-7.068,1.708-10.708c0.196-2.398,0.478-4.855,0.759-7.356
			c0.96-8.529,2.057-18.322-0.027-27.279c1.027-1.756,1.945-3.744,2.766-5.99l9.786,4.893c0.674,0.341,1.399,0.589,2.142,0.734
			l41.216,8.243l41.395,24.841c0.538,0.324,1.101,0.58,1.698,0.777l25.6,8.533c0.896,0.299,1.809,0.444,2.697,0.444
			c3.576,0,6.903-2.261,8.09-5.837c1.493-4.471-0.922-9.301-5.393-10.795l-24.713-8.243l-41.856-25.114
			c-0.845-0.503-1.758-0.853-2.722-1.05l-41.54-8.311l-12.975-6.484c0.848-18.214-6.56-36.259-20.102-49.24
			c0.146-0.382,0.3-0.751,0.438-1.147c1.137-3.234,1.937-6.527,2.431-9.841l59.477,14.867c0.683,0.171,1.374,0.256,2.065,0.256
			c1.664,0,3.319-0.495,4.736-1.434l76.8-51.2c3.925-2.611,4.983-7.91,2.364-11.836c-2.62-3.917-7.91-4.992-11.836-2.364
			l-73.66,49.101l-60.216-15.05c-1.116-6.303-3.305-12.449-6.476-18.186c0.002-0.078,0.017-0.154,0.017-0.232v-42.667
			c0-21.896-14.454-37.56-27.503-47.242l20.645-4.129c2.219-0.435,4.173-1.749,5.427-3.627l34.133-51.2
			c2.611-3.925,1.553-9.225-2.364-11.836c-3.934-2.628-9.225-1.553-11.836,2.364l-32.171,48.265l-30.075,6.016
			c-1.633-7.301-5.115-13.561-10.419-18.688c-14.916-14.438-38.946-13.85-39.415-13.79c-1.024-0.026-25.062-0.648-39.987,13.79
			c-5.305,5.127-8.786,11.387-10.42,18.689l-30.076-6.017L143.634,3.804c-2.62-3.917-7.919-4.992-11.836-2.364
			c-3.917,2.611-4.975,7.91-2.364,11.836l34.133,51.2c1.254,1.877,3.208,3.191,5.427,3.627l20.645,4.129
			c-13.052,9.681-27.509,25.346-27.509,47.242v42.667c0,0.084,0.016,0.165,0.019,0.248c-3.166,5.731-5.352,11.872-6.469,18.169
			l-60.218,15.05l-73.66-49.101c-3.934-2.628-9.225-1.553-11.836,2.364c-2.611,3.925-1.553,9.225,2.364,11.836l76.8,51.2
			c1.417,0.939,3.063,1.434,4.736,1.434c0.691,0,1.391-0.085,2.074-0.256l59.465-14.866c0.493,3.317,1.292,6.612,2.429,9.849
			c0.139,0.393,0.293,0.761,0.439,1.141c-13.538,12.981-20.948,31.026-20.096,49.236l-12.976,6.485l-41.54,8.311
			c-0.964,0.196-1.877,0.546-2.722,1.05l-41.856,25.114l-24.713,8.243c-4.471,1.493-6.895,6.323-5.402,10.795
			c1.195,3.575,4.523,5.837,8.098,5.837c0.888,0,1.801-0.145,2.697-0.444l25.6-8.533c0.589-0.196,1.161-0.452,1.698-0.777
			l41.395-24.841l41.216-8.243c0.742-0.145,1.468-0.393,2.142-0.734l9.79-4.895c0.798,2.188,1.689,4.133,2.684,5.859
			c-2.081,8.906-0.966,18.68,0.012,27.199c0.299,2.569,0.597,5.111,0.794,7.561c0.01,0.114,0.403,4.761,1.391,10.943l-81.439,57.009
			l-57.719,8.243c-4.668,0.666-7.902,4.992-7.236,9.66c0.606,4.25,4.258,7.322,8.431,7.322c0.401,0,0.811-0.026,1.22-0.085
			l59.733-8.533c1.323-0.188,2.586-0.691,3.686-1.459l77.487-54.241c1.126,3.346,2.453,6.403,4.015,8.774
			c-1.138,6.308-1.507,13.097-1.02,20.176c1.041,15.258,3.968,25.796,8.943,32.205c0.014,0.019,0.031,0.034,0.046,0.052
			c2.049,11.082,10.329,21.014,22.956,28.772l-18.737,9.368c-1.331,0.674-2.458,1.664-3.285,2.901l-34.133,51.2
			c-2.611,3.925-1.553,9.225,2.364,11.836c1.459,0.973,3.106,1.434,4.727,1.434c2.756,0,5.461-1.331,7.108-3.797l32.879-49.314
			l28.914-14.457c14.511,4.976,31.817,7.835,50.574,7.835c18.757,0,36.063-2.859,50.574-7.835l28.914,14.457l32.879,49.314
			c1.647,2.466,4.352,3.797,7.108,3.797c1.621,0,3.268-0.461,4.727-1.434c3.917-2.611,4.975-7.91,2.364-11.836l-34.133-51.2
			c-0.828-1.237-1.954-2.227-3.285-2.901l-18.737-9.368c12.629-7.76,20.91-17.693,22.957-28.778c0.013-0.016,0.027-0.03,0.039-0.046
			c4.966-6.4,7.893-16.913,8.943-32.154c0.664-9.577-0.26-18.684-2.6-26.79c0.334-0.316,0.653-0.651,0.937-1.024
			c0.71-0.945,1.391-1.96,2.043-3.031l80.113,56.079c1.092,0.768,2.355,1.271,3.678,1.459l59.733,8.533
			c0.41,0.06,0.819,0.085,1.22,0.085c4.181,0,7.834-3.072,8.439-7.322C512.581,397.612,509.338,393.286,504.679,392.62z
			 M350.698,307.179c-0.299,2.662-0.589,5.308-0.802,7.868c-0.307,3.763-1.033,7.535-2.074,10.974
			c-9.589-8.516-19.447-15.011-28.978-19.969c-29.168-16.889-58.264-16.078-62.905-15.833c-0.06-0.002-0.129-0.003-0.201-0.005
			c-1.801-0.056-6.525-0.106-13.152,0.57c-18.073,1.665-50.874,7.888-79.801,30.399c-0.282-2.091-0.521-4.156-0.683-6.135
			c-0.213-2.637-0.521-5.367-0.836-8.132c-1.587-13.807-2.202-23.236,3.533-28.297c7.612-6.728,15.855-12.01,24.165-16.155
			c32.604-16.264,66.221-15.032,66.643-14.998c0.307,0.017,0.631,0.017,0.93-0.009c0.546-0.008,53.018-2.935,90.53,31.078
			c0.033,0.029,0.064,0.065,0.097,0.094C353.272,284.298,352.03,295.415,350.698,307.179z M259.915,349.919
			c-0.201-0.004-0.401-0.009-0.602-0.012c-1.099-0.02-2.202-0.034-3.312-0.034c-1.111,0-2.214,0.014-3.315,0.034
			c-0.196,0.003-0.392,0.008-0.587,0.012c-0.833,0.018-1.662,0.041-2.488,0.07c-35.389,1.197-64.466,12.285-78.446,28.585
			c-0.196-1.681-0.358-3.507-0.495-5.504c-1.007-14.711,2.551-27.836,9.523-35.123c20.397-21.304,46.192-27.857,61.695-29.841
			c6.652-0.745,11.473-0.832,13.493-0.828c0.081,0.003,0.133,0.006,0.144,0.008c0.152,0.007,0.315-0.004,0.475-0.004
			c0.219,0.003,0.362,0.007,0.413,0.008c0.329-0.045,25.065-0.985,53.368,13.321c7.517,4.264,15.025,9.871,21.913,17.25
			c7.04,7.543,10.641,20.727,9.634,35.26c-0.137,1.971-0.299,3.789-0.495,5.453c-13.975-16.303-43.061-27.392-78.459-28.585
			C261.557,349.959,260.737,349.936,259.915,349.919z M216.573,76.166c0.028-0.012,0.052-0.029,0.08-0.041
			c0.356-0.151,0.7-0.324,1.032-0.521c0.025-0.015,0.049-0.031,0.074-0.046c1.731-1.052,3.084-2.709,3.714-4.749
			c0.005-0.015,0.011-0.03,0.016-0.046c0.081-0.267,0.152-0.539,0.207-0.819c0.017-0.083,0.023-0.165,0.037-0.248
			c0.017-0.102,0.032-0.203,0.046-0.306c0.05-0.373,0.083-0.745,0.084-1.112c0-0.002,0-0.004,0-0.006
			c0-0.006,0.001-0.011,0.001-0.017c0-0.011,0.001-0.022,0.001-0.032c0.01-7.032,2.056-12.436,6.253-16.514
			c8.909-8.678,24.713-9.045,27.674-9.045h0.469c0.128-0.017,17.954-0.367,27.622,9.045c4.207,4.087,6.246,9.506,6.246,16.563
			c0,0.083,0.016,0.162,0.018,0.244c0.008,0.261,0.027,0.523,0.06,0.786c0.02,0.159,0.042,0.317,0.071,0.473
			c0.01,0.057,0.014,0.113,0.025,0.169c0.052,0.262,0.116,0.518,0.191,0.769c0.021,0.068,0.047,0.134,0.069,0.202
			c0.108,0.335,0.235,0.659,0.381,0.972c0.011,0.024,0.02,0.048,0.032,0.072c0.175,0.367,0.378,0.716,0.6,1.049
			c0.004,0.006,0.008,0.013,0.013,0.019c0.697,1.037,1.609,1.899,2.662,2.537c0.019,0.012,0.038,0.024,0.058,0.036
			c0.336,0.2,0.685,0.375,1.046,0.528c0.026,0.011,0.048,0.026,0.074,0.037c0.367,0.154,37.367,15.744,37.367,43.307v23.243
			c-1.185-0.905-2.402-1.783-3.664-2.618c-32.96-21.777-67.661-20.92-73.08-20.644c-0.015,0.001-0.038,0.002-0.053,0.002
			c-5.323-0.273-40.091-1.192-73.128,20.642c-1.266,0.837-2.486,1.718-3.674,2.625v-23.25
			C179.197,91.91,216.198,76.32,216.573,76.166z M188.629,157.007c31.081-22.595,66.411-20.508,66.779-20.484
			c0.393,0.017,0.802,0.017,1.212,0c0.023-0.003,0.19-0.014,0.48-0.027c0.05-0.002,0.118-0.005,0.175-0.007
			c0.092-0.004,0.19-0.008,0.301-0.011c0.156-0.005,0.334-0.01,0.525-0.014c0.038-0.001,0.074-0.002,0.114-0.003
			c1.974-0.04,5.676-0.017,10.574,0.438c0.168,0.016,0.347,0.036,0.518,0.052c0.448,0.044,0.896,0.087,1.363,0.138
			c13.193,1.457,33.695,6.061,52.747,19.946c13.079,10.531,19.213,26.688,15.754,41.556c-0.028-0.015-0.055-0.032-0.084-0.048
			c-28.365-15.286-57.399-18.607-72.695-19.214c-2.359-0.098-4.389-0.131-6.013-0.131c-1.357,0-2.441,0.017-3.217,0.043
			c-0.29-0.017-2.031-0.017-2.321,0l-0.004,0.009c-8.38-0.255-45.713-0.222-81.928,19.294c-0.026,0.014-0.052,0.03-0.078,0.044
			C169.371,183.696,175.516,167.528,188.629,157.007z M177.301,215.779c11.611-6.8,23.509-11.255,34.418-14.159
			c0.55-0.145,1.1-0.289,1.644-0.426c0.119-0.03,0.237-0.06,0.356-0.089c17.105-4.255,31.6-4.824,38.098-4.824
			c0.784,0,1.443,0.008,1.984,0.019c0.193,0.005,0.39,0.01,0.553,0.015c0.094,0.009,0.188,0.009,0.282,0.009
			c0.004,0,0.022-0.001,0.03-0.001c0.49,0.016,0.773,0.032,0.803,0.035c0.35,0.026,0.708,0.026,1.058,0
			c0.275-0.012,19.961-1.074,44.253,5.393c0.363,0.098,0.727,0.197,1.092,0.299c0.445,0.122,0.892,0.248,1.339,0.375
			c10.106,2.907,20.939,7.168,31.531,13.381c16.321,10.706,24.805,29.778,21.325,47.914c-0.318-0.273-0.64-0.538-0.96-0.807
			c-0.219-0.184-0.437-0.37-0.656-0.552c-0.446-0.37-0.894-0.732-1.342-1.093c-0.205-0.165-0.409-0.332-0.614-0.496
			c-0.47-0.374-0.942-0.74-1.414-1.104c-0.187-0.144-0.372-0.29-0.559-0.433c-0.496-0.378-0.995-0.749-1.493-1.118
			c-0.165-0.122-0.329-0.246-0.494-0.367c-0.536-0.392-1.074-0.777-1.613-1.158c-0.127-0.09-0.254-0.182-0.381-0.272
			c-0.587-0.412-1.176-0.816-1.766-1.216c-0.081-0.055-0.161-0.111-0.241-0.165c-0.659-0.444-1.32-0.88-1.983-1.308
			c-0.01-0.007-0.021-0.014-0.031-0.021c-37.259-24.081-78.903-23.538-86.064-23.238c-0.198,0.008-0.378,0.015-0.521,0.022
			c-0.306-0.012-0.745-0.025-1.296-0.034c-10.097-0.188-59.859,0.805-98.71,33.367C152.446,245.577,160.947,226.482,177.301,215.779
			z M208.367,427.454c-0.339-0.156-0.688-0.288-1.044-0.399c-17.495-6.696-27.994-16.549-28.112-25.824
			c0.017-0.183,0.047-0.363,0.052-0.548c0.469-15.957,32.102-33.741,76.74-33.741c44.629,0,76.262,17.783,76.74,33.741
			c0.005,0.178,0.034,0.351,0.05,0.527c-0.102,9.283-10.608,19.148-28.123,25.849c-0.349,0.109-0.691,0.238-1.024,0.391
			c-12.735,4.708-29.024,7.757-47.645,7.757C237.386,435.206,221.1,432.16,208.367,427.454z"/>
	</g>
</g>
<g>
</g>
<g>
</g>
<g>
</g>
<g>
</g>
<g>
</g>
<g>
</g>
<g>
</g>
<g>
</g>
<g>
</g>
<g>
</g>
<g>
</g>
<g>
</g>
<g>
</g>
<g>
</g>
<g>
</g>
</svg>
