<?xml version="1.0" encoding="iso-8859-1"?>
<!-- Generator: Adobe Illustrator 16.0.0, SVG Export Plug-In . SVG Version: 6.00 Build 0)  -->
<!DOCTYPE svg PUBLIC "-//W3C//DTD SVG 1.1//EN" "http://www.w3.org/Graphics/SVG/1.1/DTD/svg11.dtd">
<svg version="1.1" id="Capa_1" xmlns="http://www.w3.org/2000/svg" xmlns:xlink="http://www.w3.org/1999/xlink" x="0px" y="0px"
	 width="384.703px" height="384.704px" viewBox="0 0 384.703 384.704" style="enable-background:new 0 0 384.703 384.704;"
	 xml:space="preserve">
<g>
	<g>
		<path d="M145.834,12.214c-0.052-0.111-0.141-0.174-0.208-0.275c-0.089-0.134-0.164-0.279-0.276-0.397
			c-0.044-0.049-0.088-0.101-0.14-0.134c-0.122-0.118-0.262-0.186-0.402-0.273c-0.096-0.068-0.163-0.153-0.27-0.202
			c-0.021-0.011-0.044-0.006-0.061-0.017c-0.056-0.036-0.112-0.053-0.17-0.074c-0.161-0.068-0.327-0.084-0.498-0.112
			c-0.14-0.027-0.273-0.071-0.413-0.077c-0.03,0-0.052-0.024-0.08-0.024c-0.021,0-0.042,0.01-0.068,0.024
			c-0.156,0.006-0.306,0.055-0.46,0.082c-0.149,0.028-0.301,0.044-0.451,0.102c-0.063,0.022-0.126,0.044-0.182,0.074
			c-0.021,0.011-0.044,0.006-0.063,0.016c-0.109,0.055-0.178,0.146-0.278,0.214c-0.128,0.082-0.268,0.145-0.381,0.257
			c-0.051,0.049-0.1,0.101-0.144,0.14c-0.112,0.117-0.187,0.262-0.271,0.391c-0.061,0.102-0.157,0.165-0.208,0.277l-22.426,45.987
			c-12.24,8.106-20.339,22.003-20.339,37.748c0,24.975,20.313,45.286,45.281,45.286s45.286-20.312,45.286-45.286
			c0-15.756-8.096-29.636-20.339-37.748L145.834,12.214z M146.125,25.561l13.8,28.299c-4.321-1.716-8.953-2.758-13.8-3.062V25.561z
			 M140.521,25.561v25.237c-4.84,0.304-9.479,1.346-13.793,3.056L140.521,25.561z M183.005,95.945
			c0,21.882-17.802,39.683-39.683,39.683c-21.873,0-39.676-17.801-39.676-39.683c0-21.875,17.803-39.683,39.676-39.683
			C165.197,56.272,183.005,74.082,183.005,95.945z"/>
		<path d="M216.417,58.207c-12.246,8.106-20.344,21.997-20.344,37.749c0,24.974,20.324,45.286,45.286,45.286
			c24.976,0,45.286-20.312,45.286-45.286c0-15.757-8.1-29.636-20.344-37.749l-22.426-45.993c-0.055-0.111-0.141-0.174-0.209-0.281
			c-0.085-0.128-0.15-0.274-0.272-0.387c-0.042-0.049-0.103-0.101-0.143-0.139c-0.118-0.118-0.263-0.186-0.403-0.273
			c-0.089-0.068-0.164-0.153-0.265-0.202c-0.02-0.011-0.043-0.006-0.054-0.017c-0.064-0.036-0.121-0.053-0.176-0.074
			c-0.164-0.068-0.328-0.084-0.49-0.112c-0.145-0.027-0.275-0.071-0.416-0.077c-0.033,0-0.057-0.024-0.079-0.024
			c-0.02,0-0.052,0.01-0.076,0.024c-0.153,0.006-0.307,0.055-0.46,0.082c-0.142,0.028-0.295,0.053-0.448,0.102
			c-0.065,0.022-0.118,0.044-0.175,0.074c-0.022,0.011-0.045,0.006-0.064,0.016c-0.122,0.055-0.177,0.146-0.286,0.214
			c-0.12,0.082-0.261,0.145-0.372,0.257c-0.055,0.049-0.107,0.101-0.153,0.14c-0.109,0.117-0.187,0.262-0.263,0.391
			c-0.065,0.102-0.164,0.165-0.206,0.277L216.417,58.207z M238.558,25.561v25.25c-4.847,0.296-9.478,1.338-13.801,3.053
			L238.558,25.561z M281.042,95.945c0,21.882-17.807,39.683-39.683,39.683c-21.878,0-39.684-17.801-39.684-39.683
			c0-21.875,17.806-39.683,39.684-39.683C263.235,56.262,281.042,74.082,281.042,95.945z M244.16,50.812v-25.25l13.803,28.299
			C253.639,52.155,249.009,51.107,244.16,50.812z"/>
		<path d="M364.336,117.025l-22.422-45.987c-0.046-0.112-0.145-0.175-0.21-0.281c-0.088-0.129-0.153-0.274-0.263-0.386
			c-0.042-0.057-0.115-0.101-0.143-0.139c-0.131-0.118-0.263-0.186-0.402-0.279c-0.099-0.063-0.164-0.147-0.263-0.197
			c-0.022-0.011-0.046-0.006-0.068-0.017c-0.052-0.036-0.108-0.052-0.164-0.074c-0.164-0.068-0.337-0.085-0.503-0.112
			c-0.142-0.027-0.271-0.079-0.416-0.084c-0.02,0-0.043-0.017-0.076-0.017c-0.022,0-0.042,0.011-0.065,0.017
			c-0.153,0.005-0.308,0.063-0.461,0.09c-0.15,0.027-0.306,0.044-0.459,0.102c-0.055,0.021-0.12,0.043-0.176,0.073
			c-0.02,0.011-0.043,0.006-0.065,0.017c-0.118,0.055-0.174,0.145-0.271,0.214c-0.131,0.082-0.29,0.145-0.383,0.257
			c-0.057,0.049-0.099,0.093-0.145,0.14c-0.118,0.118-0.184,0.263-0.271,0.391c-0.065,0.102-0.154,0.165-0.21,0.277l-22.422,45.978
			c-12.246,8.115-20.347,22.011-20.347,37.757c0,24.974,20.323,45.294,45.286,45.294c24.975,0,45.286-20.314,45.286-45.294
			C384.684,139.006,376.583,125.127,364.336,117.025z M342.208,84.385l13.789,28.293c-4.312-1.715-8.952-2.752-13.789-3.056V84.385z
			 M336.604,84.385v25.237c-4.847,0.304-9.487,1.347-13.812,3.062L336.604,84.385z M339.406,194.454
			c-21.889,0-39.683-17.797-39.683-39.686c0-21.874,17.794-39.683,39.683-39.683c21.866,0,39.674,17.809,39.674,39.683
			C379.08,176.657,361.272,194.454,339.406,194.454z"/>
		<path d="M90.567,154.768c0-15.762-8.101-29.647-20.345-37.762L47.798,71.033c-0.052-0.112-0.147-0.175-0.208-0.282
			c-0.09-0.128-0.156-0.273-0.268-0.386c-0.046-0.058-0.096-0.101-0.147-0.134c-0.124-0.118-0.268-0.191-0.408-0.287
			c-0.096-0.061-0.156-0.146-0.261-0.195c-0.026-0.011-0.047-0.005-0.064-0.017c-0.055-0.035-0.107-0.052-0.167-0.073
			c-0.164-0.069-0.332-0.085-0.505-0.118c-0.14-0.021-0.275-0.079-0.414-0.079c-0.028,0-0.053-0.017-0.081-0.017
			c-0.021,0-0.043,0.011-0.065,0.011c-0.159,0.005-0.304,0.063-0.458,0.09c-0.159,0.027-0.31,0.043-0.455,0.101
			c-0.063,0.021-0.123,0.044-0.18,0.065c-0.023,0.019-0.044,0.009-0.061,0.025c-0.111,0.055-0.181,0.145-0.282,0.206
			c-0.129,0.09-0.269,0.153-0.38,0.265c-0.049,0.049-0.101,0.093-0.145,0.14c-0.112,0.118-0.187,0.263-0.271,0.392
			c-0.06,0.101-0.156,0.164-0.205,0.268l-22.433,45.987C8.104,125.111,0,139.006,0,154.752c0,24.974,20.317,45.283,45.286,45.283
			S90.567,179.748,90.567,154.768z M48.083,84.385l13.795,28.293c-4.314-1.715-8.953-2.752-13.795-3.056V84.385z M42.48,84.385
			v25.237c-4.846,0.304-9.481,1.347-13.8,3.062L42.48,84.385z M5.598,154.768c0-21.874,17.803-39.683,39.683-39.683
			c21.882,0,39.684,17.809,39.684,39.683c0,21.883-17.801,39.686-39.684,39.686C23.406,194.454,5.598,176.662,5.598,154.768z"/>
		<path d="M198.207,152.785c-83.596,0-152.932,77.761-154.557,173.161c-0.033,0.383-0.089,0.788-0.138,1.172
			c-0.112,0.815-0.215,1.63-0.215,2.474c0,24.526,19.954,44.483,44.474,44.483h223.837c0.537,0,1.04-0.21,1.47-0.533
			c21.833-2.594,38.302-20.355,39.166-42.144c0.416-0.494,0.667-1.118,0.667-1.819C352.91,232.118,283.517,152.785,198.207,152.785z
			 M346.673,329.615c0,20.091-15.18,36.639-35.327,38.488c-0.416,0.043-0.821,0.163-1.158,0.372H87.766
			c-21.434,0-38.871-17.434-38.871-38.874c0-0.585,0.091-1.159,0.162-1.729c0.068-0.493,0.131-0.985,0.182-1.652
			c1.58-92.564,68.405-167.843,148.951-167.843c81.709,0,148.281,75.848,149.099,169.441
			C346.914,328.337,346.673,328.934,346.673,329.615z"/>
		<path d="M220.031,241.502c-1.084-1.095-2.886-1.095-3.964,0l-17.971,17.97l-17.978-17.97c-1.092-1.095-2.867-1.095-3.962,0
			c-1.091,1.084-1.091,2.867,0,3.961l17.972,17.971l-17.972,17.971c-1.091,1.083-1.091,2.867,0,3.961
			c0.551,0.547,1.268,0.821,1.984,0.821s1.436-0.285,1.984-0.821l17.971-17.971l17.971,17.971c0.555,0.547,1.274,0.821,1.988,0.821
			c0.72,0,1.434-0.285,1.984-0.821c1.094-1.094,1.094-2.878,0-3.961l-17.971-17.971l17.971-17.971
			C221.134,244.37,221.134,242.596,220.031,241.502z"/>
	</g>
</g>
<g>
</g>
<g>
</g>
<g>
</g>
<g>
</g>
<g>
</g>
<g>
</g>
<g>
</g>
<g>
</g>
<g>
</g>
<g>
</g>
<g>
</g>
<g>
</g>
<g>
</g>
<g>
</g>
<g>
</g>
</svg>
