<?xml version="1.0" encoding="iso-8859-1"?>
<!-- Generator: Adobe Illustrator 18.0.0, SVG Export Plug-In . SVG Version: 6.00 Build 0)  -->
<!DOCTYPE svg PUBLIC "-//W3C//DTD SVG 1.1//EN" "http://www.w3.org/Graphics/SVG/1.1/DTD/svg11.dtd">
<svg version="1.1" id="Capa_1" xmlns="http://www.w3.org/2000/svg" xmlns:xlink="http://www.w3.org/1999/xlink" x="0px" y="0px"
	 viewBox="0 0 491 491" style="enable-background:new 0 0 491 491;" xml:space="preserve">
<g>
	<path d="M470.5,123.457H325.247V91.043c0-11.304-9.196-20.5-20.5-20.5H186.254c-11.304,0-20.5,9.196-20.5,20.5v32.415H20.5
		c-11.304,0-20.5,9.196-20.5,20.5v256c0,11.304,9.196,20.5,20.5,20.5h450c11.304,0,20.5-9.196,20.5-20.5v-256
		C491,132.654,481.804,123.457,470.5,123.457z M182.754,91.043c0-1.93,1.57-3.5,3.5-3.5h118.493c1.93,0,3.5,1.57,3.5,3.5v32.415
		H182.754V91.043z M474,399.957c0,1.93-1.57,3.5-3.5,3.5h-450c-1.93,0-3.5-1.57-3.5-3.5v-256c0-1.93,1.57-3.5,3.5-3.5h450
		c1.93,0,3.5,1.57,3.5,3.5V399.957z"/>
	<path d="M289.545,240.62h-12.706v-12.707c0-12.782-10.4-23.182-23.182-23.182h-16.313c-12.782,0-23.182,10.4-23.182,23.182v12.707
		h-12.706c-12.782,0-23.182,10.399-23.182,23.182v16.313c0,12.782,10.399,23.182,23.182,23.182h12.706v12.707
		c0,12.782,10.399,23.182,23.182,23.182h16.313c12.782,0,23.182-10.4,23.182-23.182v-12.707h12.706
		c12.782,0,23.182-10.399,23.182-23.182v-16.313C312.727,251.019,302.327,240.62,289.545,240.62z M295.727,280.114
		c0,3.408-2.773,6.182-6.182,6.182h-21.206c-4.694,0-8.5,3.806-8.5,8.5v21.207c0,3.408-2.773,6.182-6.182,6.182h-16.313
		c-3.408,0-6.182-2.773-6.182-6.182v-21.207c0-4.694-3.806-8.5-8.5-8.5h-21.206c-3.408,0-6.182-2.773-6.182-6.182v-16.313
		c0-3.408,2.773-6.182,6.182-6.182h21.206c4.694,0,8.5-3.806,8.5-8.5v-21.207c0-3.408,2.773-6.182,6.182-6.182h16.313
		c3.408,0,6.182,2.773,6.182,6.182v21.207c0,4.694,3.806,8.5,8.5,8.5h21.206c3.408,0,6.182,2.773,6.182,6.182V280.114z"/>
	<path d="M422.529,208.859c-19.513,0-35.759,14.252-38.879,32.891h-24.076c-13.378-50.477-59.447-87.792-114.074-87.792
		c-54.627,0-100.696,37.314-114.074,87.792H107.35c-3.12-18.639-19.366-32.891-38.878-32.891c-21.734,0-39.416,17.683-39.416,39.417
		c0,8.642,2.813,16.917,7.906,23.682c-5.093,6.765-7.906,15.04-7.906,23.682c0,21.734,17.682,39.417,39.416,39.417
		c19.512,0,35.758-14.252,38.878-32.891h24.076c13.378,50.478,59.447,87.792,114.074,87.792c54.627,0,100.696-37.314,114.074-87.792
		h24.076c3.12,18.639,19.366,32.891,38.879,32.891c21.734,0,39.416-17.683,39.416-39.417c0-8.642-2.814-16.917-7.906-23.682
		c5.093-6.765,7.906-15.04,7.906-23.682C461.945,226.542,444.264,208.859,422.529,208.859z M99.322,285.165
		c-2.35,0-4.594,0.973-6.2,2.686c-1.607,1.714-2.434,4.017-2.282,6.36c0.03,0.472,0.05,0.947,0.05,1.428
		c0,12.36-10.057,22.417-22.418,22.417c-12.36,0-22.416-10.057-22.416-22.417c0-6.636,2.921-12.896,8.014-17.173
		c1.923-1.615,3.033-3.998,3.033-6.509c0-2.511-1.11-4.894-3.033-6.509c-5.093-4.277-8.014-10.537-8.014-17.173
		c0-12.36,10.056-22.417,22.416-22.417c12.361,0,22.418,10.057,22.418,22.417c0,0.48-0.02,0.956-0.05,1.428
		c-0.151,2.344,0.675,4.646,2.282,6.36c1.606,1.713,3.851,2.686,6.2,2.686h28.921c-0.485,4.338-0.743,8.743-0.743,13.208
		c0,4.465,0.258,8.87,0.743,13.208H99.322z M245.5,372.957c-55.691,0-101-45.309-101-101s45.309-101,101-101s101,45.309,101,101
		S301.191,372.957,245.5,372.957z M436.932,278.466c5.093,4.277,8.014,10.536,8.014,17.173c0,12.36-10.056,22.417-22.416,22.417
		c-12.362,0-22.419-10.057-22.419-22.417c0-0.484,0.021-0.964,0.051-1.44c0.147-2.342-0.681-4.642-2.287-6.352
		c-1.606-1.711-3.85-2.682-6.196-2.682h-28.921c0.485-4.338,0.743-8.743,0.743-13.208c0-4.465-0.258-8.87-0.743-13.208h28.921
		c2.347,0,4.59-0.971,6.196-2.682c1.607-1.71,2.435-4.01,2.287-6.352c-0.03-0.477-0.051-0.956-0.051-1.44
		c0-12.36,10.057-22.417,22.419-22.417c12.36,0,22.416,10.057,22.416,22.417c0,6.637-2.921,12.895-8.014,17.173
		c-1.924,1.614-3.034,3.997-3.034,6.509C433.897,274.469,435.008,276.852,436.932,278.466z"/>
</g>
<g>
</g>
<g>
</g>
<g>
</g>
<g>
</g>
<g>
</g>
<g>
</g>
<g>
</g>
<g>
</g>
<g>
</g>
<g>
</g>
<g>
</g>
<g>
</g>
<g>
</g>
<g>
</g>
<g>
</g>
</svg>
